<svg width="66" height="38" viewBox="0 0 66 38" fill="none" xmlns="http://www.w3.org/2000/svg">
<path d="M0.726013 7.01397C0.726013 6.0113 1.07068 5.18097 1.76001 4.52297C2.48068 3.86497 3.35801 3.53597 4.39201 3.53597C5.42601 3.53597 6.28768 3.86497 6.97701 4.52297C7.69768 5.18097 8.05801 6.0113 8.05801 7.01397C8.05801 7.9853 7.69768 8.81563 6.97701 9.50497C6.28768 10.163 5.42601 10.492 4.39201 10.492C3.35801 10.492 2.48068 10.163 1.76001 9.50497C1.07068 8.81563 0.726013 7.9853 0.726013 7.01397ZM1.38401 15.38H7.30601V37H1.38401V15.38Z" fill="black"/>
<path d="M26.3638 4.19397H34.9178L25.3298 15.521C25.7998 15.333 26.2854 15.2076 26.7868 15.145C27.3194 15.051 27.8991 15.004 28.5258 15.004C30.2178 15.004 31.8314 15.4426 33.3668 16.32C34.9021 17.1973 36.1554 18.435 37.1268 20.033C38.0981 21.631 38.5838 23.511 38.5838 25.673C38.5838 28.2423 38.0041 30.42 36.8448 32.206C35.7168 33.992 34.1814 35.355 32.2388 36.295C30.3274 37.2036 28.1968 37.658 25.8468 37.658C23.4968 37.658 21.3504 37.2036 19.4078 36.295C17.4964 35.355 15.9611 33.992 14.8018 32.206C13.6738 30.42 13.1098 28.2423 13.1098 25.673C13.1098 24.0123 13.4231 22.477 14.0498 21.067C14.6764 19.657 15.4598 18.3723 16.3998 17.213L26.3638 4.19397ZM19.7368 25.673C19.7368 27.4903 20.3164 28.9786 21.4758 30.138C22.6664 31.266 24.1234 31.83 25.8468 31.83C27.6014 31.83 29.0428 31.266 30.1708 30.138C31.3301 28.9786 31.9098 27.4903 31.9098 25.673C31.9098 23.8243 31.3301 22.3203 30.1708 21.161C29.0428 20.0016 27.6014 19.422 25.8468 19.422C24.1234 19.422 22.6664 20.0016 21.4758 21.161C20.3164 22.3203 19.7368 23.8243 19.7368 25.673Z" fill="black"/>
<path d="M57.6012 15.38H64.9332L55.6272 24.31L65.8732 37H58.5882L49.6582 26.002V37H43.7832V0.339966H49.6582V22.994L57.6012 15.38Z" fill="black"/>
</svg>
