<svg width="39" height="39" viewBox="0 0 39 39" fill="none" xmlns="http://www.w3.org/2000/svg">
<path d="M33.2305 33.2304H27.4518V24.18C27.4518 22.0218 27.4132 19.2436 24.4463 19.2436C21.4365 19.2436 20.9759 21.5949 20.9759 24.0228V33.2297H15.1974V14.6184H20.7448V17.1618H20.8226C21.9521 15.2304 24.0601 14.0725 26.2961 14.1556C32.153 14.1556 33.2329 18.0082 33.2329 23.0205L33.2305 33.2304ZM8.67709 12.0743C6.83743 12.0743 5.32292 10.5606 5.32292 8.72075C5.32292 6.88095 6.83672 5.36702 8.67639 5.36702C10.5159 5.36702 12.0295 6.8806 12.0299 8.72006C12.0299 10.5595 10.5164 12.0741 8.67709 12.0743ZM11.5664 33.2304H5.7817V14.6184H11.5664V33.2304ZM36.1112 0.000247538H2.87777C1.31774 -0.0173725 0.0190142 1.25127 0 2.81142V36.1855C0.0183164 37.7465 1.31686 39.0165 2.87777 38.9998H36.1112C37.676 39.0195 38.9791 37.7496 39 36.1855V2.80915C38.9791 1.24568 37.6742 -0.0203382 36.1112 0.000247538Z" fill="#C4C4C4"/>
</svg>
