<svg width="65" height="45" viewBox="0 0 65 45" fill="none" xmlns="http://www.w3.org/2000/svg">
<path d="M48.2132 13.1803C48.2132 13.1803 42.943 29.714 42.5135 31.0789C42.3574 29.675 38.4925 0 38.4925 0C29.5135 0 24.7117 6.39514 22.1742 13.1413C22.1742 13.1413 15.7718 29.714 15.2252 31.1179C15.1862 29.831 14.2493 13.3362 14.2493 13.3362C13.7027 5.06932 6.12913 0.0389935 0 0.0389935L7.41742 45C16.8258 44.961 21.9009 38.6048 24.5556 31.8587C24.5556 31.8587 30.2162 17.2357 30.4505 16.5728C30.4895 17.1967 34.5105 45 34.5105 45C43.958 45 49.033 39.0338 51.7657 32.5217L65 0.0389935C55.6696 0.0389935 50.7507 6.39515 48.2132 13.1803Z" fill="#A8A8A8"/>
</svg>
